<svg width="15" height="18" viewBox="0 0 15 18" fill="none" xmlns="http://www.w3.org/2000/svg">
<path d="M7.30577 8.56586C8.48256 8.56586 9.50157 8.1438 10.3342 7.31106C11.1668 6.47846 11.5888 5.45972 11.5888 4.2828C11.5888 3.10628 11.1668 2.0874 10.334 1.25453C9.5013 0.422066 8.48243 0 7.30577 0C6.12884 0 5.11011 0.422066 4.27751 1.25467C3.44491 2.08727 3.02271 3.10614 3.02271 4.2828C3.02271 5.45972 3.44491 6.4786 4.27764 7.3112C5.11038 8.14366 6.12925 8.56586 7.30577 8.56586Z" fill="white"/>
<path d="M14.8 13.6738C14.776 13.3273 14.7274 12.9493 14.6559 12.5502C14.5837 12.1481 14.4908 11.7679 14.3795 11.4205C14.2646 11.0614 14.1083 10.7067 13.9152 10.3669C13.7146 10.0141 13.4791 9.70697 13.2148 9.45422C12.9385 9.1898 12.6001 8.97721 12.2088 8.82214C11.8189 8.66788 11.3868 8.58974 10.9246 8.58974C10.7431 8.58974 10.5675 8.66422 10.2285 8.88495C10.0198 9.02103 9.77576 9.1784 9.50333 9.35247C9.27039 9.50089 8.95483 9.63995 8.56505 9.76585C8.18477 9.8889 7.79866 9.95131 7.41756 9.95131C7.03647 9.95131 6.65049 9.8889 6.2698 9.76585C5.88043 9.64008 5.56487 9.50102 5.33219 9.3526C5.06235 9.18017 4.81815 9.02279 4.60637 8.88482C4.26774 8.66408 4.09205 8.5896 3.91052 8.5896C3.44816 8.5896 3.01619 8.66788 2.62641 8.82227C2.23542 8.97707 1.89692 9.18966 1.62029 9.45435C1.35615 9.70724 1.12049 10.0143 0.920242 10.3669C0.727185 10.7067 0.570895 11.0612 0.455848 11.4206C0.344735 11.7681 0.251801 12.1481 0.179626 12.5502C0.108128 12.9488 0.0595587 13.3269 0.0355453 13.6742C0.0119389 14.0145 0 14.3676 0 14.7243C0 15.6525 0.29508 16.404 0.876964 16.9582C1.45166 17.5051 2.21208 17.7825 3.1368 17.7825H11.6991C12.6239 17.7825 13.384 17.5052 13.9588 16.9582C14.5409 16.4044 14.8359 15.6528 14.8359 14.7241C14.8358 14.3658 14.8237 14.0124 14.8 13.6738Z" fill="white"/>
</svg>
